<svg width="90" height="90" viewBox="0 0 90 90" fill="none" xmlns="http://www.w3.org/2000/svg">
<path d="M41.8345 45.576L41.3245 44.692L43.2285 43.604C44.7925 42.7427 45.5745 41.3713 45.5745 39.49C45.5745 35.9767 42.8998 34.22 37.5505 34.22H34.4225V57H33.4025V33.2H37.5505C40.5425 33.2 42.7978 33.7553 44.3165 34.866C45.8352 35.954 46.5945 37.4953 46.5945 39.49C46.5945 41.7567 45.6425 43.4227 43.7385 44.488L41.8345 45.576ZM50.381 55.98H62.893L55.685 36.158L48.103 57H47.015L55.685 33.166L64.355 57H50.381V55.98Z" fill="#FFFFEE"/>
<circle cx="45" cy="45" r="44.5" stroke="#FFFFEE"/>
</svg>
